 <svg width="1000" height="440" xmlns="http://www.w3.org/2000/svg">
            <g>
                <ellipse cx="250" cy="300" rx="105" ry="40" fill="#d3d3d3"></ellipse>
                
                <circle cx="250" cy="160" r="150" fill="#ffa500"></circle>
                <circle cx="235" cy="120" r="50" fill="white"></circle>
                <circle cx="295" cy="120" r="50" fill="white"></circle>
                <circle cx="245" cy="120" r="10" fill="black"></circle>
                <circle cx="305" cy="120" r="10" fill="black"></circle>
                <circle cx="265" cy="163" r="15" fill="black"></circle>
                <ellipse cx="250" cy="230" rx="25" ry="10" fill="#dc143c"></ellipse>
                <polygon points="145,60 155,15 200,30" stroke="#ffa500" stroke-width="5" fill="black" />
                <polygon points="295,30 340,15 350,60" stroke="#ffa500" stroke-width="5" fill="black" />
                <!-- <path d="M 12 200 a 10 30 -80  0 0  130 40"  fill="#ffa500" stroke="none" />
                <path d="M 12 200 a 10 30 -80  1 1  130 40"  fill="#ffa500" stroke="none" /> -->
                <ellipse cx="150" cy="187" fill="#ffa500" rx="70" ry="23" transform="rotate(20)"></ellipse>
                <polygon points="12 205, 50,195 35,231" fill="white" />
                
            </g>
            <g>
                <ellipse cx="750" cy="300" rx="105" ry="40" fill="#d3d3d3"></ellipse>
                <circle cx="750" cy="160" r="150" fill="#ffd700"></circle>
                <circle cx="695" cy="120" r="50" fill="white"></circle>
                <circle cx="755" cy="120" r="50" fill="white"></circle>
                <circle cx="685" cy="120" r="10" fill="black"></circle>
                <circle cx="735" cy="120" r="10" fill="black"></circle>
                <ellipse cx="720" cy="230" rx="10" ry="25" fill="#dc143c"></ellipse>
                <polygon points="512 205, 550,195 535,231" fill="white" />
            </g>
</svg>