<?xml version="1.0" standalone="no"?>
<!DOCTYPE svg PUBLIC "-//W3C//DTD SVG 20010904//EN"
 "http://www.w3.org/TR/2001/REC-SVG-20010904/DTD/svg10.dtd">
<svg version="1.0" xmlns="http://www.w3.org/2000/svg"
 width="1024.000000pt" height="456.000000pt" viewBox="0 0 1024.000000 456.000000"
 preserveAspectRatio="xMidYMid meet">

<g transform="translate(0.000000,456.000000) scale(0.100000,-0.100000)"
fill="#000000" stroke="none">
<path d="M1645 4287 c-12 -32 -76 -339 -73 -347 3 -8 408 206 430 228 6 6 -52
30 -172 70 -124 42 -182 57 -185 49z"/>
<path d="M3277 4238 c-118 -40 -175 -64 -169 -70 22 -22 427 -236 430 -228 4
12 -68 343 -77 351 -3 4 -86 -20 -184 -53z"/>
<path d="M2481 3366 c-87 -48 -50 -186 49 -186 51 0 100 49 100 99 0 75 -83
124 -149 87z"/>
<path d="M3081 3366 c-87 -48 -50 -186 49 -186 51 0 100 49 100 99 0 75 -83
124 -149 87z"/>
<path d="M6881 3366 c-87 -48 -50 -186 49 -186 51 0 100 49 100 99 0 75 -83
124 -149 87z"/>
<path d="M7381 3366 c-87 -48 -50 -186 49 -186 51 0 100 49 100 99 0 75 -83
124 -149 87z"/>
<path d="M2662 2983 c-70 -34 -102 -132 -65 -203 75 -144 294 -81 280 81 -9
108 -118 170 -215 122z"/>
<path d="M7242 2407 c-41 -43 -55 -103 -55 -227 0 -124 14 -184 55 -227 27
-29 49 -29 76 0 41 43 55 103 55 227 0 84 -4 127 -17 160 -19 51 -52 90 -76
90 -9 0 -26 -10 -38 -23z"/>
<path d="M2456 2269 c-60 -15 -116 -50 -123 -78 -5 -19 1 -30 25 -52 44 -40
102 -54 222 -54 120 0 178 14 222 54 46 41 35 71 -38 107 -49 24 -71 28 -163
30 -58 2 -123 -1 -145 -7z"/>
</g>
</svg>
